# xmcd
#
# Track frame offsets: 
#        150
#        15348
#        28977
#        41201
#        53600
#        66731
#        80762
#        90401
#        102838
#        115544
#        129061
#        144737
#        157145
#        170279
#        182480
#        193754
#        204223
#        218816
#        235516
#        252070
#        267291
#        279035
#        292490
#        304938
#
# Disc length: 4205 seconds
#
# Revision: 0
# Processed by: cddbd v1.5.2PL0 Copyright (c) Steve Scherf et al.
# Submitted via: ExactAudioCopyFreeDBPlugin 1.0
#
DISCID=52106b18
DTITLE=Various Artist - Black Vocal Groups Vol. 7 (1927-1941)
DYEAR=1997
DGENRE=Gospel
TTITLE0=New Orleans University Glee Club - The Old Ark's A-Movering
TTITLE1=New Orleans University Glee Club - Climbing Jacob's Ladder
TTITLE2=Pace Jubilee Singers - I'll Be Satisfied
TTITLE3=Pace Jubilee Singers - It Pays to Serve Jesus
TTITLE4=Pace Jubilee Singers - He's the One
TTITLE5=Pace Jubilee Singers - You'd Better Mind
TTITLE6=Pilgrim Jubilee Singers - The Lord's Prayer
TTITLE7=Pilgrim Jubilee Singers - My Lord's Gonna Move This Race
TTITLE8=Pilgrim Jubilee Singers - King of Kings
TTITLE9=Pilgrim Jubilee Singers - My Soul Looked Back
TTITLE10=Pilgrim Jubilee Singers - I'm in His Care
TTITLE11=Pilgrim Jubilee Singers - Goodnight, the Lord's Coming
TTITLE12=Ravizee Singers - Hide Me
TTITLE13=Ravizee Singers - I Am Thinking of a City (Lanka Lanka)
TTITLE14=Ravizee Singers - You'll Need My Saviour Too
TTITLE15=Ravizee Singers - He's All and All
TTITLE16=Reed and Duncans - Light in the Valley
TTITLE17=Reed and Duncans - You'd Better Mind
TTITLE18=Reed and Duncans - Don't Make It Too Late
TTITLE19=Reed and Duncans - On the Glory Line
TTITLE20=Royal Harmony Singers (The Florida Boys) - The Gospel Train
TTITLE21=Royal Harmony Singers (The Florida Boys) - I'm on My Way to H
TTITLE21=eaven Anyhow
TTITLE22=Royal Harmony Singers (The Florida Boys) - Jezebel
TTITLE23=Royal Harmony Singers (The Florida Boys) - The Alphabet of th
TTITLE23=e Bible
EXTD=
EXTT0=
EXTT1=
EXTT2=
EXTT3=
EXTT4=
EXTT5=
EXTT6=
EXTT7=
EXTT8=
EXTT9=
EXTT10=
EXTT11=
EXTT12=
EXTT13=
EXTT14=
EXTT15=
EXTT16=
EXTT17=
EXTT18=
EXTT19=
EXTT20=
EXTT21=
EXTT22=
EXTT23=
PLAYORDER=
